<?xml version="1.0" encoding="utf-8"?>
<!-- Generator: Adobe Illustrator 28.2.0, SVG Export Plug-In . SVG Version: 6.00 Build 0)  -->
<svg version="1.1" xmlns="http://www.w3.org/2000/svg" xmlns:xlink="http://www.w3.org/1999/xlink" x="0px" y="0px"
	 viewBox="0 0 248 224" style="enable-background:new 0 0 248 224;" xml:space="preserve">
<style type="text/css">
	.st0{fill:#FFFFFF;}
	.st1{fill:#010101;}
</style>
<g id="head2">
	<path d="M201,41c-26.3-18.7-59.2-20.3-82-13c-14.8,4.8-40,18-40,18l0,0c20.7,24.7,41.3,49.3,62,74c-27-8.3-54-16.7-81-25
		c3.4,12.1,11.8,35.2,32.5,56.6c8.5,8.8,21.4,22.4,43,29.4c8,2.6,41.6,13.5,71.5-7c32.3-22.2,32.1-61.9,32-66
		C238.1,69.5,209.3,46.9,201,41z"/>
</g>
<g id="neck2">
	<path d="M116,163c-16.7,21-33.3,42-50,63c37.3-0.7,74.6-1.3,111.9-2c12.1-18.5,24.2-37.1,36.3-55.6"/>
</g>
<g id="eye2">
	<path class="st0" d="M143.4,47c-3.1,15.3-2,26.6,2.9,28c5.9,1.6,16.1-11.3,17.7-13.4"/>
</g>
<g id="notes2">
	<path class="st1" d="M22,7c-0.1,0-1.4,0.9-2.9,2.1c-2.4,1.8-3.1,2.2-5.5,3.3L11,13.6v0.8c0,0.8,0.5,3.8,0.6,3.9
		c0.2,0.1,1.3-0.5,2.1-1.1c0.5-0.4,2.2-1.9,3.7-3.4c3.3-3,3.6-3.3,3.7-3.3c0.3,0-2.5,8.5-7.8,22.9c-2.7,7.5-5.2,15.3-6.7,20.7
		C6,56.4,6,56.8,6,59.3C6,62,6,62,6.6,63.4c1.4,2.9,3.1,5,5.3,6.7c4.3,3.2,10.9,4.4,17,2.9c4.3-1,7.5-3.5,7.8-6.1
		c0.4-3-3.1-6-8.6-7.6c-3.7-1.1-7.5-1.6-12.5-1.6h-3.4l0.1-0.6c1.6-9.3,2.7-13.9,9.2-35.5C23.8,13.9,25.1,9,25,8.7
		c-0.1-0.1-0.3-0.2-0.5-0.2c-0.3,0-0.8-0.3-1.4-0.7C22.6,7.3,22.1,7,22,7z"/>
	<path class="st1" d="M68.4,32.3c-0.1,0-0.8,0.4-1.5,0.8c-2.8,1.9-4,2.5-6.8,3.6c-3.3,1.3-3.1,0.9-2.6,3.5c0.2,0.8,0.4,1.5,0.5,1.5
		c0.6,0,1.9-0.8,5.5-3.5c2.2-1.7,4-2.9,4-2.7c-0.1,0.2-0.3,0.8-0.5,1.5c-0.8,2.3-2.3,5.8-6.8,16.3c-2.3,5.4-3.9,9.1-5.1,12.4
		c-3.7,9.6-3.7,11.1-0.5,15.2c1.1,1.5,4,3.6,5.9,4.4c2.1,0.9,4.8,1.5,7.4,1.7c7.8,0.7,15.4-2.2,15.4-5.8c0-4.3-9.2-7.3-22-7.3h-2.5
		l0.5-2.2c0.6-3.1,1.5-6.1,3-10.7c1.3-4.1,2-6,5.3-15.1c1.1-3,2.5-6.9,3-8.6c0.6-1.7,1.1-3.2,1.1-3.3c0.1-0.2-0.1-0.3-0.8-0.4
		c-0.6-0.1-1.1-0.3-1.4-0.7C68.9,32.5,68.5,32.3,68.4,32.3z"/>
</g>
</svg>
