<?xml version="1.0" encoding="utf-8"?>
<!-- Generator: Adobe Illustrator 28.2.0, SVG Export Plug-In . SVG Version: 6.00 Build 0)  -->
<svg version="1.1" xmlns="http://www.w3.org/2000/svg" xmlns:xlink="http://www.w3.org/1999/xlink" x="0px" y="0px"
	 viewBox="0 0 220 225.5" style="enable-background:new 0 0 220 225.5;" xml:space="preserve">
<style type="text/css">
	.st0{fill:#FFFFFF;}
	.st1{fill:#010101;}
</style>
<g id="head4">
	<path d="M157.1,35c-28.4-15.5-58.2-10.1-69.7-8.1C82.6,27.7,59.5,32.1,60,32c29.4,29.4,58.9,58.8,88.3,88.2
		c-38.3-6.3-76.6-12.7-114.9-19c5.3,11.4,17.2,32.9,41,50.8c9.8,7.3,24.7,18.7,47.1,22.2c5.1,0.8,11.5,2,19.9,1.4
		c7.3-0.6,29.9-3.6,46.7-23c16.7-19.4,18-44,14.1-60.6c-0.3-1.3-0.6-2.3-0.8-3C192.4,56.3,166.4,40.1,157.1,35z"/>
</g>
<g id="neck4">
	<path d="M91,160c6.5,21.8,13,43.6,19.5,65.5c23.2-0.2,46.4-0.3,69.5-0.5c0.5-22,1.1-44,1.6-66.1"/>
</g>
<g id="eye4">
	<path class="st0" d="M154.5,69.2c-24.3-9.4-36-15.9-35.2-19.5c0.6-2.7,8.6-3.8,24-3.1"/>
</g>
<g id="notes4">
	<path id="path6" class="st1" d="M18,10.1c0,20.1,0,40.2,0,60.3c4.1-2.7,8.3-5.4,11.9-8.8c3.7-3.4,7.2-7.4,8.6-12.2
		c1.1-3.6,0.6-8-2.3-10.7c-2.9-2.8-7.4-3.2-11-1.8c-0.4,0.1-1.2,0.7-1-0.1c0-9.5,0-19.1,0-28.6c-2.1,0-4.2,0-6.2,0
		C18,8.8,18,9.5,18,10.1L18,10.1z M26,44c1.3,0.1,2.4,1.2,2.5,2.5c0.7,3.9-1.2,7.9-3.7,10.8c-0.5,0.7-0.7,0.8-0.6-0.1
		c0-4.3,0-8.5,0-12.8C24.7,44,25.4,44,26,44L26,44z"/>
	<path id="path8" class="st1" d="M47.6,47.2c-0.5,16.1-1.1,32.4-1.6,48.5c5.5-3,11.1-6.2,15.4-10.5c2.6-2.6,4.8-6,4.7-9.6
		c0-2.6-1.7-5.2-4.4-6.4c-2.8-1.3-6.2-1.2-9-0.2c0.3-7.7,0.5-15.5,0.8-23.2c-1.9-0.1-3.9-0.1-5.7-0.2C47.7,46.2,47.7,46.6,47.6,47.2
		L47.6,47.2z M54.1,74.4c1.3,0,2.3,1,2.2,2.1c0.4,3.2-1.5,6.4-3.9,8.7c-0.6,0.7-0.3-0.3-0.3-0.7c0.1-3.3,0.2-6.6,0.3-9.9
		C53,74.5,53.6,74.4,54.1,74.4z"/>
</g>
</svg>
