<?xml version="1.0" encoding="utf-8"?>
<!-- Generator: Adobe Illustrator 28.2.0, SVG Export Plug-In . SVG Version: 6.00 Build 0)  -->
<svg version="1.1" xmlns="http://www.w3.org/2000/svg" xmlns:xlink="http://www.w3.org/1999/xlink" x="0px" y="0px"
	 viewBox="0 0 294.4 237.5" style="enable-background:new 0 0 294.4 237.5;" xml:space="preserve">
<style type="text/css">
	.st0{fill:#FFFFFF;}
	.st1{fill:#010101;}
</style>
<g id="head">
	<path d="M236.7,21.5c-108-52-142,25-142,25c44,21.7,88,43.3,132,65c-50.3-5.3-100.7-10.7-151-16c3.4,12.1,11.8,35.2,32.5,56.6
		c6,6.2,20.1,20.4,43,29.4c9.7,3.8,50.3,19.6,89.5-2c27.5-15.2,55.1-49.1,49.3-90C283.6,43.4,239.9,22.9,236.7,21.5z"/>
</g>
<g id="neck">
	<polyline points="131.5,171.4 107.7,237.5 226.7,237.5 233.5,183.1 	"/>
</g>
<g id="eye">
	<polyline class="st0" points="164.9,32 210.6,53 164.9,42.5 	"/>
</g>
<g id="notes">
	<g transform="translate(0.000000,776.000000) scale(0.100000,-0.100000)">
		<path class="st1" d="M146.8,7460c-0.5,0.2-7.8-21.2-16.2-47.6c-8.6-26.2-33.6-103-55.6-170.5s-40.8-126.8-41.6-132
			c-4.1-24.1,8-54.6,31.4-79.8c43.2-46,116.9-74.2,137.2-52.6c28.9,30.7,15.6,71.6-33.8,104.5c-22.6,15.2-57.5,28.9-88.7,34.8
			c-7.8,1.4-14.4,2.9-14.7,3.1s3.1,10.5,7.4,22.8c4.3,12.5,13.3,39.1,20,59.4c14.9,45.2,45.8,135.9,46.6,136.6
			c0.3,0.3,7.4-3,15.9-7.3c26-13.1,46.5-20.2,78.1-27.1c18.2-3.9,30.1-5.8,79.3-13.1c30.3-4.4,52.9-8.7,52.8-9.7
			c-0.1-1.3-14.9-38.1-30.3-75.5c-29.8-72.7-38.6-98.8-43.7-132.3c-6.4-40.5,1.4-78.1,22.4-108.1c30.6-43.8,87.7-65.6,116.1-44.5
			c3.8,2.9,10,9.7,13.7,15.3c6.6,9.7,6.8,10.4,7.8,24.4c1,13.1,0.6,15.2-2.8,22.7c-4.7,10.1-19.9,26.6-31.4,33.9
			c-21,13.7-50.6,24.9-83.5,31.7c-9,1.8-16.5,3.5-16.6,3.8c-0.7,0.9,5.5,26.2,10.9,44.5c8.7,29.3,25.1,76,44.8,126.1
			c9.9,25.7,26.2,67.6,36.1,93.2c10.1,25.7,20.3,52.4,23,59.4l4.7,13l-7.8,1.4c-4.3,0.7-38.6,4.4-76.2,7.9s-76.4,7.8-86.2,9.2
			c-57.8,9.2-91.3,22.1-109.4,42C151.5,7455.4,147.2,7459.8,146.8,7460z M156.4,7398.9c0.3,0.3,7.1-3.1,14.8-7.5
			c32.5-18.1,60-24.3,148.5-33.8c40.2-4.4,68.3-8.5,70-10.2c0.7-0.9-9.9-30.8-11.4-32.3c-0.7-0.5-8,0.6-16.4,2.4
			c-8.3,1.8-35.2,6.4-59.9,10.2c-68.3,10.7-89.1,15.1-117.2,25.4c-13,4.7-40.5,17.3-42.4,19.4c-0.3,0.3,2.5,6.4,6.3,13.3
			C152.6,7392.9,155.9,7398.8,156.4,7398.9z"/>
		<path class="st1" d="M608.9,7300.6c-0.2-0.6-11.6-43.4-25.1-95.2c-13.6-51.7-33.1-125.8-43.4-164.5c-17.7-67.4-18.5-71-17.3-79.3
			c1.6-12.2,7.4-23.6,18.1-35.3c11.3-12.6,23.1-21.6,39.9-31.1c33.3-18.5,69.8-26.3,90.3-19.1c8.4,3,18.6,12.6,23.2,22.1
			c9.6,19.2-3.5,41.5-34.1,58.4c-25.1,13.6-51.7,20.9-91,24.8c-17.1,1.7-22.2,2.6-21.9,4.1c0.2,1,3.8,13.7,7.8,28.2
			c4,14.5,12.8,47.6,19.5,73.3c28.5,109.9,44.7,169.7,46.3,171c0.2,0.3,4.9-1.2,10.2-3.2c19.2-7.1,38-10.3,69.8-11.8
			c34.8-1.8,56.6-0.5,120,6.6c25,2.8,45.5,4.9,45.8,4.6c1.3-1.1-18-51.5-46.2-120.6c-19.8-48.5-38.5-97.5-47.3-124.9
			c-12.8-38.8-13.2-54.6-2.1-79.1c15.9-35.3,49.7-56.5,90.5-57c24.5-0.2,43.6,5.7,57.8,17.8c22.2,18.9,14.1,44.1-20.1,63
			c-21.3,11.7-46.3,18.2-79.7,20.6c-17.4,1.3-19.6,1.6-19.4,3.9c0.1,1.3,2.2,10.9,4.6,21c9.8,41,19.1,70.3,53.5,171
			c15.6,45.6,29.4,86.4,30.8,90.7c1.2,4.3,2.8,9.1,3.4,10.5c1,2.5,0.4,2.7-12.7,2.7c-7.6,0-30.3-0.7-50.4-1.7
			c-93-4.2-132.2-3.8-161.3,1.5c-26.3,5-46.4,13.4-55.1,23.5C611.2,7299.7,609.1,7301.2,608.9,7300.6z"/>
	</g>
</g>
</svg>
